<?xml version="1.0" standalone="no"?>
<!DOCTYPE svg PUBLIC "-//W3C//DTD SVG 20010904//EN"
 "http://www.w3.org/TR/2001/REC-SVG-20010904/DTD/svg10.dtd">
<svg version="1.0" xmlns="http://www.w3.org/2000/svg"
 width="2048.000000pt" height="2048.000000pt" viewBox="0 0 2048.000000 2048.000000"
 preserveAspectRatio="xMidYMid meet">

<g transform="translate(0.000000,2048.000000) scale(0.100000,-0.100000)"
fill="#000000" stroke="none">
<path d="M9815 20464 c-936 -54 -1600 -160 -2371 -379 -2777 -788 -5099 -2721
-6383 -5315 -1081 -2183 -1344 -4691 -741 -7065 620 -2439 2132 -4575 4235
-5982 2168 -1449 4811 -2013 7399 -1578 2456 414 4698 1732 6264 3683 1274
1587 2039 3492 2216 5517 30 340 39 622 33 1045 -6 422 -12 525 -48 890 -211
2131 -1098 4141 -2547 5775 -152 172 -652 670 -822 821 -1063 940 -2267 1638
-3580 2074 -824 273 -1636 433 -2555 501 -143 10 -974 20 -1100 13z m828
-1958 c93 -4 179 -9 190 -11 12 -2 60 -6 107 -10 312 -23 743 -89 1110 -171
1224 -274 2408 -844 3383 -1628 317 -255 767 -684 1022 -976 1140 -1304 1855
-2947 2020 -4645 8 -88 17 -176 20 -196 26 -219 26 -1106 0 -1271 -2 -13 -6
-61 -10 -108 -16 -222 -75 -622 -134 -910 -120 -590 -319 -1204 -571 -1760
-103 -226 -124 -262 -197 -330 -366 -346 -804 -614 -1266 -776 -94 -33 -311
-99 -365 -111 -25 -6 -72 30 -72 54 0 8 -33 108 -74 222 -62 174 -91 237 -177
392 -56 101 -124 214 -150 250 -47 64 -48 67 -37 105 15 51 71 120 116 143 66
34 450 416 651 646 l192 220 87 35 c101 42 153 74 240 149 116 99 216 281 242
437 11 69 10 75 -18 155 -28 80 -84 193 -124 251 -41 60 -12 420 52 633 28 94
30 111 30 270 0 152 -8 233 -74 765 l-75 595 -64 141 c-221 485 -524 924 -869
1260 -85 84 -126 114 -238 179 -74 44 -185 109 -246 145 -69 42 -217 112 -390
185 -258 109 -294 122 -484 167 -207 49 -293 61 -555 74 -116 6 -264 -4 -495
-31 -19 -2 -120 -14 -225 -25 -510 -58 -1008 -255 -1406 -560 -303 -231 -687
-664 -1003 -1133 l-174 -256 -35 -323 -36 -323 -64 -185 c-49 -139 -75 -238
-107 -395 -42 -206 -42 -212 -30 -295 26 -183 94 -344 229 -549 69 -105 111
-195 111 -241 0 -15 -137 -184 -194 -240 l-46 -44 0 -116 c1 -151 21 -290 52
-366 66 -158 201 -276 365 -318 67 -18 203 -22 203 -6 0 5 11 17 25 26 25 16
27 16 51 -7 47 -44 151 -173 199 -249 26 -41 113 -143 194 -228 306 -321 678
-563 1096 -712 110 -40 206 -77 213 -82 16 -13 16 -43 0 -56 -21 -17 -351 60
-531 123 -142 49 -162 54 -199 46 -23 -5 -53 -18 -66 -28 -14 -10 -86 -131
-162 -272 -123 -226 -148 -282 -228 -500 -130 -353 -140 -402 -212 -986 -34
-275 -66 -510 -71 -523 -7 -18 -16 -23 -36 -20 -14 2 -29 10 -33 18 -4 8 -26
94 -49 190 -23 96 -77 321 -120 500 -44 179 -130 530 -191 780 -147 601 -778
2802 -815 2838 -3 3 -78 34 -168 69 -117 46 -212 75 -340 103 -173 39 -773
195 -870 226 -26 9 -72 36 -102 60 l-55 45 0 149 0 148 157 82 c202 106 383
242 553 415 122 125 128 129 240 183 63 30 185 79 270 109 85 30 163 62 174
72 27 27 33 104 11 138 -10 16 -24 31 -31 36 -46 27 -234 302 -234 342 0 8 10
25 23 39 19 21 58 33 294 85 149 34 273 61 276 61 2 0 10 20 17 45 15 54 8
111 -22 168 -11 23 -49 126 -84 229 l-62 186 23 34 c21 31 85 88 100 88 3 0
94 34 203 76 173 66 379 167 515 251 33 21 37 27 37 66 -1 50 -25 84 -71 97
-18 6 -116 57 -218 116 -138 79 -231 141 -361 242 -171 134 -175 138 -178 178
-2 29 2 45 15 56 10 9 110 48 223 86 263 90 498 189 730 309 195 101 487 275
507 302 34 45 -1 98 -84 130 -32 12 -265 110 -518 219 -403 173 -462 201 -473
226 -18 36 -3 73 46 117 21 18 96 89 167 158 72 70 240 232 375 361 134 129
287 276 340 327 l95 92 -15 28 c-21 38 -51 50 -144 58 -43 4 -86 8 -95 10 -9
1 -43 6 -76 9 -33 4 -78 9 -100 12 -71 9 -119 15 -155 19 -82 10 -128 16 -180
25 -30 5 -71 12 -90 15 -19 3 -57 10 -85 15 -27 5 -66 12 -85 15 -77 13 -98
16 -178 31 -45 8 -91 16 -102 17 -25 2 -54 77 -47 123 5 30 127 246 634 1119
73 126 133 238 133 247 0 10 -10 23 -23 29 -19 8 -122 -27 -642 -222 -341
-128 -637 -234 -658 -237 -44 -5 -80 15 -101 56 -40 77 -124 545 -150 832 -17
185 -22 517 -10 723 7 122 6 124 -17 140 -13 10 -36 17 -50 17 -33 0 -264
-123 -438 -232 -315 -199 -627 -464 -874 -742 -55 -61 -106 -114 -115 -117
-21 -8 -41 -1 -66 20 -20 17 -709 857 -714 871 -3 9 26 20 263 107 617 224
1446 403 2070 448 50 4 101 9 115 11 14 2 111 7 215 10 105 4 191 7 192 8 6 5
434 -2 586 -8z m-3907 -783 c-3 -10 -30 -127 -60 -260 -46 -202 -70 -283 -146
-490 -92 -251 -115 -293 -159 -293 -10 0 -115 46 -232 103 -157 76 -270 122
-421 173 -115 38 -208 71 -208 74 1 14 369 249 595 380 134 78 617 330 632
330 2 0 2 -8 -1 -17z m-1497 -1136 c108 -265 117 -292 145 -423 31 -147 34
-172 41 -309 6 -106 5 -111 -17 -132 -26 -24 -93 -47 -108 -38 -8 5 -333 -22
-725 -60 -452 -43 -665 -60 -665 -54 0 37 627 681 865 889 149 129 372 310
383 310 4 0 40 -82 81 -183z m-1267 -1425 c114 -125 275 -306 357 -403 145
-171 153 -182 236 -350 77 -152 87 -178 83 -214 -9 -76 -35 -99 -347 -312
-292 -200 -775 -557 -798 -591 -7 -9 -9 -22 -5 -28 4 -6 151 -59 327 -118 211
-72 353 -126 415 -158 124 -65 277 -178 366 -270 99 -101 204 -242 204 -274 0
-26 -9 -37 -493 -549 -224 -237 -236 -252 -237 -289 0 -69 13 -75 485 -232
393 -131 432 -146 458 -176 51 -61 58 -135 18 -209 -11 -20 -54 -162 -95 -316
-67 -247 -76 -289 -76 -366 0 -63 3 -87 13 -87 6 0 129 9 272 20 271 21 401
24 502 14 l59 -6 29 -105 c26 -94 29 -122 31 -281 1 -97 6 -188 12 -202 10
-25 10 -25 103 -19 119 8 219 46 326 123 43 31 88 56 102 56 15 0 72 -36 150
-94 151 -112 311 -202 481 -272 110 -45 128 -55 154 -91 23 -33 30 -55 33
-110 5 -60 2 -76 -20 -119 -14 -28 -42 -63 -62 -78 -26 -20 -228 -92 -734
-261 -781 -260 -792 -265 -869 -375 -36 -51 -50 -86 -87 -218 -50 -180 -434
-1545 -563 -2000 -31 -112 -51 -166 -63 -173 -32 -16 -240 -47 -369 -54 -458
-25 -955 140 -1315 435 -77 63 -242 231 -294 297 -77 101 -303 665 -430 1078
-169 546 -291 1160 -336 1685 -4 41 -8 85 -10 97 -19 126 -27 888 -12 1155 10
181 42 492 72 703 198 1372 743 2679 1583 3798 69 92 128 167 131 166 3 0 99
-103 213 -227z m2853 -753 c405 -50 715 -403 715 -816 0 -89 -3 -106 -37 -190
l-36 -93 -176 6 c-101 3 -257 16 -366 31 l-190 26 -160 -27 c-130 -22 -505
-61 -511 -53 -1 1 -20 37 -43 79 -60 109 -79 225 -56 342 64 334 321 606 645
686 92 22 103 23 215 9z m1945 -348 c212 -41 416 -124 591 -242 142 -95 185
-170 177 -307 -5 -91 -39 -165 -97 -213 -47 -38 -67 -37 -297 11 -140 29 -304
52 -639 90 -589 66 -522 52 -539 109 -11 37 -12 77 -6 182 7 118 11 141 35
188 34 67 111 144 171 171 26 11 81 24 123 29 115 15 359 5 481 -18z m-3011
-2954 c12 -24 21 -62 21 -84 0 -89 318 -840 386 -914 16 -17 24 -37 24 -61 0
-40 -8 -68 -19 -68 -14 0 -169 227 -218 320 -127 240 -285 784 -243 835 19 23
26 19 49 -28z m-4661 -813 c51 -58 12 -144 -66 -144 -91 0 -126 113 -49 161
40 25 83 19 115 -17z m18401 10 c25 -21 31 -33 31 -67 0 -55 -30 -87 -81 -87
-89 0 -126 93 -61 151 40 36 71 37 111 3z m-6212 -36 c114 -118 202 -273 246
-433 18 -67 21 -106 21 -240 0 -137 -3 -172 -23 -245 -70 -250 -215 -457 -421
-602 -225 -158 -517 -221 -785 -168 -169 33 -288 86 -460 206 -200 139 -304
288 -391 564 -33 104 -32 196 2 281 14 35 27 65 29 67 5 5 376 53 563 72 203
20 460 64 592 101 136 38 260 110 368 213 44 42 65 71 73 99 6 22 20 53 32 69
22 29 74 68 92 68 6 0 34 -24 62 -52z m1192 -132 c63 -67 166 -144 242 -181
49 -23 149 -54 297 -90 191 -47 258 -59 459 -80 136 -15 296 -25 379 -25 179
0 226 -17 268 -97 25 -50 20 -107 -22 -265 -55 -204 -126 -333 -261 -471 -78
-79 -117 -110 -212 -166 -99 -58 -136 -73 -250 -104 -120 -33 -148 -37 -254
-37 -350 0 -606 101 -821 322 -106 109 -169 206 -226 349 l-41 104 -1 160 c-1
121 3 178 17 235 52 218 129 361 256 476 l46 41 44 -66 c24 -36 60 -83 80
-105z m-5370 -1711 c167 -277 313 -557 485 -930 129 -278 171 -384 270 -668
l118 -338 -29 -56 c-29 -60 -86 -125 -292 -338 -421 -436 -388 -404 -405 -386
-9 10 -16 31 -16 47 0 24 34 64 218 250 119 122 264 265 321 318 l104 96 -32
156 c-29 137 -78 296 -139 449 -51 128 -437 915 -595 1215 -98 184 -177 339
-177 345 0 17 23 36 40 33 8 -2 66 -88 129 -193z m-435 -20 c66 -176 165 -805
211 -1335 19 -217 42 -429 50 -470 18 -89 19 -249 4 -355 -10 -68 -13 -75 -34
-75 -54 0 -59 21 -88 386 -34 411 -151 1468 -172 1544 -8 30 -17 91 -21 136
-7 90 4 261 16 248 4 -5 19 -41 34 -79z m-1506 -325 c2 -146 -3 -290 -13 -410
-9 -102 -19 -284 -21 -405 -4 -186 -28 -490 -50 -652 -7 -49 -25 -56 -50 -18
-15 23 -16 69 -11 498 3 259 8 483 10 497 3 14 8 61 11 105 19 262 37 486 42
525 6 48 38 93 64 88 13 -3 15 -35 18 -228z m-745 -1967 c153 -99 387 -325
387 -374 0 -59 -69 -129 -126 -129 -39 0 -62 51 -43 94 9 20 3 35 -46 112 -43
67 -75 103 -127 144 -105 82 -118 96 -118 128 0 23 15 52 27 52 2 0 22 -12 46
-27z m6987 -278 c0 -26 -16 -86 -40 -152 -52 -141 -78 -255 -85 -384 -6 -93
-1 -141 49 -469 30 -201 58 -403 62 -450 4 -47 8 -92 9 -100 6 -36 19 -240 18
-285 -4 -163 -2 -485 2 -515 16 -98 39 -200 56 -245 11 -28 23 -98 29 -160 11
-134 23 -195 48 -261 18 -44 26 -93 23 -131 -1 -17 -36 -34 -56 -27 -8 4 -27
29 -40 58 -14 28 -43 71 -65 96 -34 38 -70 117 -70 154 0 5 -11 26 -25 46 -18
25 -28 59 -35 112 -5 42 -29 156 -54 254 -82 330 -89 388 -80 656 10 248 -1
420 -29 475 -20 38 -51 65 -68 58 -26 -10 -49 -122 -47 -225 l2 -95 -58 -130
c-72 -160 -95 -240 -136 -476 -44 -256 -71 -322 -117 -293 -10 6 -32 44 -48
85 -40 98 -47 109 -93 155 -38 38 -39 42 -76 229 -57 284 -123 475 -218 632
-28 47 -42 86 -56 160 -30 158 -51 177 -88 83 -16 -39 -23 -85 -28 -179 -29
-534 -72 -857 -136 -1021 -51 -129 -70 -210 -81 -355 -7 -106 -19 -171 -46
-270 -38 -136 -56 -173 -73 -145 -18 28 -29 115 -45 345 -9 127 -18 240 -20
253 -2 13 -7 87 -11 165 l-6 142 36 65 c100 179 99 173 107 400 9 252 27 392
73 580 39 155 116 358 147 386 13 12 29 15 53 11 25 -4 39 0 54 13 11 10 72
107 137 215 132 221 158 256 175 238 9 -8 5 -52 -19 -185 -39 -217 -39 -229
-8 -303 13 -33 28 -89 32 -125 4 -36 18 -117 31 -180 13 -63 37 -212 53 -330
33 -236 66 -409 81 -424 23 -23 40 24 65 184 31 195 54 287 100 396 19 44 81
213 138 375 57 162 127 339 154 394 27 55 60 127 72 160 52 138 82 197 137
271 103 140 114 147 114 69z m-7750 -141 c88 -17 425 -165 511 -225 14 -10 47
-23 72 -29 113 -25 132 -52 152 -217 8 -65 21 -140 30 -167 26 -86 20 -230
-16 -365 -38 -141 -120 -342 -162 -395 -17 -21 -92 -93 -166 -159 -75 -67
-136 -125 -136 -129 0 -4 29 -40 65 -80 65 -72 277 -238 304 -238 25 0 197
-195 281 -319 44 -64 129 -174 189 -243 132 -153 221 -293 287 -450 56 -132
63 -190 23 -196 -36 -5 -129 107 -181 217 -36 77 -60 112 -138 196 -52 56
-143 142 -201 191 -74 62 -113 103 -129 134 -36 71 -56 84 -115 77 l-50 -6
-26 42 c-62 99 -171 178 -289 208 -31 8 -74 33 -128 76 -58 46 -98 69 -138 80
l-56 15 -27 192 c-35 249 -35 252 -14 248 19 -3 169 71 235 115 58 40 99 94
144 191 22 46 47 96 58 110 36 51 44 102 33 203 -19 176 -115 346 -205 363
-19 4 -54 20 -77 37 -77 56 -121 65 -230 45 -19 -3 -46 -8 -60 -10 -81 -13
-249 -75 -270 -101 -12 -15 -15 -62 -5 -105 3 -14 12 -65 21 -115 8 -49 25
-112 38 -140 12 -27 23 -70 25 -95 1 -25 11 -59 20 -76 33 -57 85 -247 90
-331 1 -7 14 -27 30 -46 23 -25 31 -47 36 -92 4 -33 9 -62 10 -65 2 -3 6 -34
10 -70 4 -36 8 -67 10 -70 2 -3 6 -33 10 -67 6 -62 6 -63 -18 -63 -43 0 -52
-22 -38 -98 6 -37 14 -134 16 -217 3 -82 7 -168 10 -190 2 -22 7 -67 10 -100
4 -33 15 -82 25 -110 41 -109 49 -348 15 -465 -2 -8 -7 -30 -10 -49 -9 -55
-56 -128 -74 -117 -5 4 -17 32 -26 64 -9 31 -27 74 -41 94 -13 21 -29 59 -35
85 -6 27 -35 120 -65 208 -57 171 -89 300 -99 405 -24 261 -44 416 -76 600
-17 96 -46 227 -64 290 -18 63 -36 147 -39 185 -4 39 -9 81 -11 95 -2 14 -6
52 -10 85 -3 33 -10 77 -15 98 -4 20 -6 37 -4 37 2 0 -13 35 -35 78 -49 97
-81 200 -81 261 0 84 -20 172 -55 242 -19 38 -35 80 -35 93 0 51 153 140 303
177 138 34 262 75 303 101 68 43 128 71 164 75 19 3 37 7 38 8 2 2 14 2 25 -1
12 -2 38 -7 57 -10z m1323 -696 c40 -71 47 -91 47 -138 0 -53 -34 -149 -57
-163 -48 -30 -114 5 -133 71 -20 75 -3 291 27 324 27 30 63 0 116 -94z m1424
0 c20 -16 26 -105 29 -388 2 -330 2 -320 14 -320 22 0 293 159 412 241 281
196 400 228 262 71 -126 -143 -428 -444 -510 -508 -45 -35 -85 -71 -88 -81 -4
-10 13 -50 45 -107 39 -68 80 -120 164 -206 72 -74 124 -138 148 -180 79 -145
208 -628 189 -715 -6 -33 -12 -41 -34 -43 -42 -5 -78 50 -234 361 -133 265
-261 482 -302 513 -25 19 -66 17 -93 -5 -23 -18 -62 -121 -129 -346 -30 -100
-69 -169 -99 -173 l-24 -4 7 109 c4 59 25 269 46 465 35 320 39 388 23 388 -2
0 -24 -11 -47 -25 -35 -21 -45 -23 -54 -12 -9 10 7 119 59 428 58 339 76 425
99 477 36 76 71 95 117 60z m7083 -78 c0 -12 -14 -56 -30 -100 -41 -104 -43
-117 -24 -173 20 -61 14 -128 -26 -277 -31 -118 -34 -130 -45 -215 -5 -42 -3
-54 14 -72 24 -26 25 -26 169 -53 183 -34 302 -85 302 -130 0 -18 -32 -51 -67
-69 -33 -17 -68 -14 -260 20 -96 16 -178 28 -181 24 -3 -3 -7 -49 -8 -103 -5
-180 -33 -386 -84 -632 -41 -196 -47 -220 -60 -220 -15 0 -20 34 -27 188 -11
245 -6 481 13 667 10 87 10 87 -18 108 -44 33 -255 117 -293 117 -73 0 -155
-55 -155 -105 0 -15 14 -46 30 -70 52 -76 102 -196 137 -330 51 -197 103 -452
97 -470 -7 -18 -38 -20 -52 -2 -5 6 -29 66 -52 132 -52 145 -113 279 -165 360
-49 77 -178 254 -186 255 -3 0 -9 -33 -13 -72 -12 -141 -48 -383 -59 -396 -6
-7 -20 -12 -31 -10 -26 4 -30 28 -45 313 -7 116 -17 257 -23 315 -6 58 -13
132 -15 166 l-5 61 32 7 c18 3 77 6 131 6 l98 0 3 -31 c4 -39 30 -59 56 -43 9
6 28 27 41 46 l23 36 133 7 c73 4 137 5 143 1 5 -3 12 -33 16 -67 3 -34 8 -64
11 -67 9 -9 55 9 73 28 44 48 94 173 153 385 74 268 124 389 185 445 49 45 64
49 64 20z m-1039 -443 c12 -48 24 -87 28 -87 3 0 33 27 66 61 84 85 140 112
222 107 99 -6 136 -45 187 -196 18 -52 22 -74 13 -77 -7 -2 -60 -6 -119 -9
-82 -3 -108 -2 -108 8 0 7 -6 20 -13 31 -18 23 -53 15 -92 -21 -27 -25 -36
-27 -158 -33 -71 -3 -131 -3 -133 1 -8 12 27 301 38 322 10 18 11 18 29 -1 12
-11 28 -56 40 -106z m-7472 20 c28 -34 39 -101 46 -268 5 -135 11 -187 26
-233 19 -57 19 -63 4 -290 -16 -236 -39 -436 -57 -493 -10 -36 -34 -44 -42
-15 -18 61 -55 258 -61 317 -3 39 -8 88 -10 110 -32 293 -47 675 -29 760 10
49 33 85 67 105 38 24 41 24 56 7z m4001 -41 c0 -11 -7 -129 -15 -261 -18
-294 -11 -569 16 -700 22 -103 24 -146 7 -163 -20 -20 -58 -13 -84 16 -14 15
-33 35 -41 45 -9 9 -26 17 -38 17 -21 0 -21 3 -17 118 2 64 8 125 13 134 16
30 10 68 -16 94 -23 23 -26 24 -54 10 -51 -27 -98 -130 -86 -186 4 -17 13 -30
21 -30 11 0 14 -17 14 -76 l0 -76 -27 6 c-16 2 -46 8 -68 11 -55 9 -163 69
-203 113 -18 20 -54 69 -81 107 -86 124 -105 126 -115 8 -7 -79 -31 -173 -45
-173 -17 0 -40 28 -50 61 -7 20 -20 44 -30 53 -26 24 -36 7 -60 -103 -12 -52
-23 -97 -26 -100 -16 -16 -46 29 -103 155 l-64 139 4 127 c5 135 -2 167 -41
202 -22 20 -22 20 -44 -2 -21 -22 -22 -29 -19 -177 l4 -155 -30 -52 c-16 -29
-37 -83 -47 -120 -19 -74 -66 -158 -89 -158 -21 0 -28 26 -33 135 -4 85 -2
108 16 152 34 86 51 177 50 270 -1 48 3 100 9 114 15 38 204 310 219 316 7 3
20 0 27 -6 12 -10 58 -184 131 -500 20 -86 45 -112 74 -78 14 18 41 160 41
222 0 49 22 160 34 172 10 10 37 -19 83 -89 45 -69 118 -148 136 -148 17 0 36
31 91 145 61 126 78 147 103 122 15 -15 16 -26 4 -119 -41 -317 -38 -324 81
-218 85 77 129 156 177 318 41 138 104 297 128 324 19 21 43 12 43 -16z m3085
-31 c60 -35 98 -82 135 -166 32 -75 32 -78 25 -180 -11 -164 -9 -192 20 -264
36 -90 32 -138 -23 -232 -45 -76 -134 -162 -189 -181 -18 -6 -33 -10 -33 -9 0
1 -9 65 -19 142 -16 117 -17 154 -8 232 9 79 8 101 -7 154 -18 65 -54 125
-105 173 l-30 29 -35 -77 c-70 -153 -72 -193 -15 -279 23 -34 50 -71 61 -83
14 -16 23 -56 37 -158 10 -75 15 -138 12 -140 -11 -7 -111 24 -160 48 -71 36
-153 115 -152 146 0 14 1 39 1 55 1 17 -12 77 -29 134 -17 57 -31 114 -31 127
0 31 61 172 110 255 23 38 82 112 131 164 138 143 204 167 304 110z m-6215 -2
c73 -15 100 -27 100 -43 0 -24 -54 -70 -88 -75 -48 -7 -115 -41 -174 -87 -65
-52 -212 -267 -226 -333 -22 -99 -34 -245 -22 -260 10 -11 40 -13 158 -8 115
4 170 2 252 -12 58 -9 108 -20 113 -24 4 -4 5 -21 1 -37 -5 -29 -15 -34 -162
-94 -187 -75 -235 -103 -298 -176 -66 -78 -77 -73 -130 50 -48 111 -68 136
-136 173 -27 15 -49 29 -49 32 -1 3 -2 33 -3 66 -1 39 -8 69 -19 85 -9 13 -17
32 -17 41 0 10 29 80 64 156 35 76 67 149 71 163 24 79 144 229 263 327 106
87 131 92 302 56z m8173 15 c3 -7 54 -135 115 -284 104 -257 113 -285 165
-515 31 -134 62 -275 68 -313 7 -37 18 -70 24 -73 17 -6 315 135 484 230 149
82 300 157 320 157 24 0 9 -33 -36 -81 -26 -28 -110 -96 -188 -152 -77 -56
-183 -139 -235 -185 -52 -46 -170 -138 -262 -203 -91 -66 -182 -137 -200 -157
-18 -20 -78 -76 -133 -123 -141 -122 -234 -224 -353 -385 -152 -207 -196 -258
-313 -363 -76 -70 -120 -101 -159 -116 -72 -27 -299 -156 -381 -216 -37 -27
-69 -49 -73 -49 -3 0 -6 11 -6 25 0 35 96 133 368 378 245 220 332 318 351
394 29 114 36 129 101 200 36 39 79 91 95 114 19 27 52 55 94 77 96 53 126 88
156 184 14 46 35 132 45 191 17 99 18 113 4 153 -121 357 -151 637 -103 959
23 159 25 165 38 165 5 0 11 -6 14 -12z"/>
</g>
</svg>
